<mxfile host="app.diagrams.net" modified="2020-12-04T11:54:54.289Z" agent="5.0 (Windows NT 10.0; Win64; x64) AppleWebKit/537.36 (KHTML, like Gecko) Chrome/86.0.4240.198 Safari/537.36" etag="0pP8EdqG_sUE1kCdF4ge" version="13.10.3" type="github">
  <diagram id="BveiJomkIh_YLb-aaVfS" name="Page-1">
    <mxGraphModel dx="782" dy="437" grid="1" gridSize="10" guides="1" tooltips="1" connect="1" arrows="1" fold="1" page="1" pageScale="1" pageWidth="4681" pageHeight="3300" math="0" shadow="0">
      <root>
        <mxCell id="0" />
        <mxCell id="1" parent="0" />
        <mxCell id="M_bzso7bv0qHUihyJy1d-1" value="产品输出埋点文档" style="rounded=1;whiteSpace=wrap;html=1;" vertex="1" parent="1">
          <mxGeometry x="20" y="1320" width="120" height="60" as="geometry" />
        </mxCell>
        <mxCell id="M_bzso7bv0qHUihyJy1d-2" value="确定埋点方案" style="rounded=1;whiteSpace=wrap;html=1;" vertex="1" parent="1">
          <mxGeometry x="40" y="1410" width="120" height="60" as="geometry" />
        </mxCell>
        <mxCell id="M_bzso7bv0qHUihyJy1d-3" value="新建开发计划（设计区）" style="rounded=1;whiteSpace=wrap;html=1;" vertex="1" parent="1">
          <mxGeometry x="10" y="1160" width="80" height="40" as="geometry" />
        </mxCell>
        <mxCell id="M_bzso7bv0qHUihyJy1d-4" value="埋点开发" style="rounded=1;whiteSpace=wrap;html=1;" vertex="1" parent="1">
          <mxGeometry x="420" y="1030" width="90" height="40" as="geometry" />
        </mxCell>
        <mxCell id="M_bzso7bv0qHUihyJy1d-5" value="埋点验证" style="rounded=1;whiteSpace=wrap;html=1;" vertex="1" parent="1">
          <mxGeometry x="320" y="1160" width="90" height="40" as="geometry" />
        </mxCell>
        <mxCell id="M_bzso7bv0qHUihyJy1d-6" value="埋点发布" style="rounded=1;whiteSpace=wrap;html=1;" vertex="1" parent="1">
          <mxGeometry x="490" y="1160" width="80" height="40" as="geometry" />
        </mxCell>
        <mxCell id="M_bzso7bv0qHUihyJy1d-8" value="" style="endArrow=classic;html=1;exitX=0.5;exitY=0;exitDx=0;exitDy=0;" edge="1" parent="1" source="M_bzso7bv0qHUihyJy1d-3">
          <mxGeometry width="50" height="50" relative="1" as="geometry">
            <mxPoint x="220" y="1150" as="sourcePoint" />
            <mxPoint x="90" y="1080" as="targetPoint" />
          </mxGeometry>
        </mxCell>
        <mxCell id="M_bzso7bv0qHUihyJy1d-9" value="提交到对应的同学 进入待审核状态" style="rounded=1;whiteSpace=wrap;html=1;" vertex="1" parent="1">
          <mxGeometry x="40" y="1020" width="120" height="60" as="geometry" />
        </mxCell>
        <mxCell id="M_bzso7bv0qHUihyJy1d-10" value="" style="endArrow=classic;html=1;exitX=1;exitY=0.5;exitDx=0;exitDy=0;" edge="1" parent="1" source="M_bzso7bv0qHUihyJy1d-9">
          <mxGeometry width="50" height="50" relative="1" as="geometry">
            <mxPoint x="220" y="1150" as="sourcePoint" />
            <mxPoint x="220" y="1050" as="targetPoint" />
          </mxGeometry>
        </mxCell>
        <mxCell id="M_bzso7bv0qHUihyJy1d-11" value="审核通过，进入待开发状态" style="rounded=1;whiteSpace=wrap;html=1;" vertex="1" parent="1">
          <mxGeometry x="230" y="1020" width="120" height="60" as="geometry" />
        </mxCell>
        <mxCell id="M_bzso7bv0qHUihyJy1d-12" value="埋点开发（并更状态）" style="rounded=1;whiteSpace=wrap;html=1;" vertex="1" parent="1">
          <mxGeometry x="410" y="1020" width="120" height="60" as="geometry" />
        </mxCell>
        <mxCell id="M_bzso7bv0qHUihyJy1d-13" value="" style="endArrow=classic;html=1;entryX=0;entryY=0.5;entryDx=0;entryDy=0;exitX=1;exitY=0.5;exitDx=0;exitDy=0;" edge="1" parent="1" source="M_bzso7bv0qHUihyJy1d-11" target="M_bzso7bv0qHUihyJy1d-12">
          <mxGeometry width="50" height="50" relative="1" as="geometry">
            <mxPoint x="270" y="980" as="sourcePoint" />
            <mxPoint x="320" y="930" as="targetPoint" />
          </mxGeometry>
        </mxCell>
        <mxCell id="M_bzso7bv0qHUihyJy1d-14" value="变更为待验证" style="endArrow=classic;html=1;exitX=0.5;exitY=1;exitDx=0;exitDy=0;entryX=0.5;entryY=0;entryDx=0;entryDy=0;" edge="1" parent="1" source="M_bzso7bv0qHUihyJy1d-12" target="M_bzso7bv0qHUihyJy1d-5">
          <mxGeometry width="50" height="50" relative="1" as="geometry">
            <mxPoint x="220" y="1140" as="sourcePoint" />
            <mxPoint x="370" y="1150" as="targetPoint" />
          </mxGeometry>
        </mxCell>
        <mxCell id="M_bzso7bv0qHUihyJy1d-15" value="" style="edgeStyle=elbowEdgeStyle;elbow=vertical;endArrow=classic;html=1;entryX=0;entryY=0.5;entryDx=0;entryDy=0;exitX=0.5;exitY=0;exitDx=0;exitDy=0;" edge="1" parent="1" source="M_bzso7bv0qHUihyJy1d-12" target="M_bzso7bv0qHUihyJy1d-3">
          <mxGeometry width="50" height="50" relative="1" as="geometry">
            <mxPoint x="220" y="1140" as="sourcePoint" />
            <mxPoint x="270" y="1090" as="targetPoint" />
            <Array as="points">
              <mxPoint x="10" y="960" />
              <mxPoint x="270" y="970" />
            </Array>
          </mxGeometry>
        </mxCell>
        <mxCell id="M_bzso7bv0qHUihyJy1d-16" value="退回设计区" style="text;html=1;align=center;verticalAlign=middle;resizable=0;points=[];autosize=1;" vertex="1" parent="1">
          <mxGeometry x="190" y="940" width="80" height="20" as="geometry" />
        </mxCell>
        <mxCell id="M_bzso7bv0qHUihyJy1d-17" value="退回开发区" style="edgeStyle=elbowEdgeStyle;elbow=vertical;endArrow=classic;html=1;exitX=0.5;exitY=0;exitDx=0;exitDy=0;entryX=0.361;entryY=0;entryDx=0;entryDy=0;entryPerimeter=0;" edge="1" parent="1" source="M_bzso7bv0qHUihyJy1d-12" target="M_bzso7bv0qHUihyJy1d-11">
          <mxGeometry width="50" height="50" relative="1" as="geometry">
            <mxPoint x="220" y="1140" as="sourcePoint" />
            <mxPoint x="270" y="1090" as="targetPoint" />
            <Array as="points">
              <mxPoint x="270" y="990" />
            </Array>
          </mxGeometry>
        </mxCell>
        <mxCell id="M_bzso7bv0qHUihyJy1d-18" value="待发布" style="endArrow=classic;html=1;entryX=0;entryY=0.5;entryDx=0;entryDy=0;exitX=1;exitY=0.5;exitDx=0;exitDy=0;" edge="1" parent="1" source="M_bzso7bv0qHUihyJy1d-5" target="M_bzso7bv0qHUihyJy1d-6">
          <mxGeometry width="50" height="50" relative="1" as="geometry">
            <mxPoint x="220" y="1120" as="sourcePoint" />
            <mxPoint x="270" y="1070" as="targetPoint" />
          </mxGeometry>
        </mxCell>
      </root>
    </mxGraphModel>
  </diagram>
</mxfile>
